<svg width="77" height="80" viewBox="0 0 77 80" fill="none" xmlns="http://www.w3.org/2000/svg">
<g clip-path="url(#clip0_155_20)">
<path d="M46.3956 9.53428L46.8636 4.50823L37.0306 3.56126L36.8185 8.43422L35.3088 3.78105L26.5794 5.64663L26.9653 9.58304L24.1576 6.63248L16.31 11.3274L18.911 15.675L14.5187 12.3991L8.86596 19.601L12.167 23.1825L7.34636 21.3204L4.04319 30.1263L8.26668 32.3456L3.2904 31.9658L2.95242 41.0813L7.29731 41.9546L2.50563 43.4323L4.57094 52.4991L9.27642 51.6518L5.43794 53.9483L10.5889 62.5581L14.4274 60.2617L11.4559 64.0073L18.4686 70.1143L21.8833 66.3351L20.069 71.2405L28.7904 74.5889L31.0637 70.4506L31.0222 75.2215L40.1904 76.2189L40.982 71.3466L41.8946 76.357L50.7436 74.3041L50.582 68.6129L53.132 72.8752L60.9796 68.1802L58.4296 63.9179L62.6856 67.1596L69.0199 60.1288L65.6336 56.5983L69.8747 58.4598L73.8426 49.6035L69.1926 47.6393L73.9992 47.5419L75.002 38.3759L70.0776 37.502L74.6811 36.4842L72.8717 27.2643L67.9103 28.2646L72.0047 25.8151L67.5862 17.4616L62.7593 19.6548L65.9867 15.7561L58.7181 9.80217L55.4916 13.1216L57.203 8.62497L48.4992 4.9188L46.3956 9.53428Z" fill="#ACACAC"/>
<path d="M43.4113 47.8292C39.1643 49.8215 34.0574 47.8893 32.0048 43.5136C29.9522 39.1379 31.7311 33.9757 35.9781 31.9834C40.2251 29.9911 45.332 31.9233 47.3846 36.299C49.4372 40.6747 47.6583 45.8369 43.4113 47.8292ZM37.6593 35.5674C35.3335 36.6584 34.3593 39.4855 35.4834 41.8818C36.6075 44.2781 39.4042 45.3363 41.7301 44.2452C44.0559 43.1542 45.0301 40.3271 43.906 37.9308C42.7819 35.5345 39.9852 34.4763 37.6593 35.5674Z" fill="black"/>
<path d="M51.3199 52.9376C49.5712 53.7579 47.4885 53.0053 46.6681 51.2565C45.8478 49.5078 46.6004 47.4251 48.3492 46.6047C50.098 45.7844 52.1806 46.537 53.001 48.2858C53.8213 50.0346 53.0687 52.1172 51.3199 52.9376ZM48.6142 47.1698C47.1775 47.8437 46.5592 49.5548 47.2331 50.9915C47.9071 52.4282 49.6182 53.0465 51.0549 52.3726C52.4916 51.6986 53.1099 49.9876 52.436 48.5508C51.762 47.1141 50.051 46.4958 48.6142 47.1698Z" fill="black"/>
<path d="M34.9107 56.7729C33.162 57.5933 31.0793 56.8406 30.259 55.0918C29.4386 53.3431 30.1913 51.2604 31.94 50.4401C33.6888 49.6197 35.7715 50.3724 36.5918 52.1211C37.4121 53.8699 36.6595 55.9526 34.9107 56.7729ZM32.2051 51.0051C30.7683 51.679 30.15 53.3901 30.824 54.8268C31.4979 56.2635 33.209 56.8819 34.6457 56.2079C36.0824 55.5339 36.7008 53.8229 36.0268 52.3862C35.3528 50.9495 33.6418 50.3311 32.2051 51.0051Z" fill="black"/>
<path d="M27.484 40.9369C25.7352 41.7572 23.6525 41.0046 22.8322 39.2558C22.0119 37.507 22.7645 35.4244 24.5133 34.604C26.262 33.7837 28.3447 34.5363 29.165 36.2851C29.9854 38.0338 29.2327 40.1165 27.484 40.9369ZM24.7783 35.169C23.3416 35.843 22.7233 37.554 23.3972 38.9907C24.0712 40.4275 25.7822 41.0458 27.2189 40.3718C28.6557 39.6979 29.274 37.9868 28.6 36.5501C27.9261 35.1134 26.215 34.4951 24.7783 35.169Z" fill="black"/>
<path d="M39.8619 28.5077C38.1131 29.328 36.0305 28.5754 35.2101 26.8266C34.3898 25.0778 35.1424 22.9952 36.8912 22.1748C38.64 21.3545 40.7226 22.1071 41.543 23.8559C42.3633 25.6046 41.6107 27.6873 39.8619 28.5077ZM37.1562 22.7398C35.7195 23.4138 35.1012 25.1248 35.7751 26.5615C36.4491 27.9983 38.1601 28.6166 39.5969 27.9426C41.0336 27.2687 41.6519 25.5576 40.978 24.1209C40.304 22.6842 38.593 22.0659 37.1562 22.7398Z" fill="black"/>
<path d="M54.1881 36.6927C52.4393 37.5131 50.3566 36.7604 49.5363 35.0116C48.716 33.2629 49.4686 31.1802 51.2174 30.3599C52.9661 29.5395 55.0488 30.2922 55.8691 32.0409C56.6895 33.7897 55.9368 35.8724 54.1881 36.6927ZM51.4824 30.9249C50.0457 31.5988 49.4274 33.3099 50.1013 34.7466C50.7753 36.1833 52.4863 36.8017 53.923 36.1277C55.3598 35.4537 55.9781 33.7427 55.3041 32.306C54.6302 30.8693 52.9191 30.2509 51.4824 30.9249Z" fill="black"/>
<g style="mix-blend-mode:screen">
<path d="M46.2568 9.63639L46.7082 4.60882L36.8721 3.69429L36.6761 8.56793L35.1511 3.91976L26.4278 5.81412L26.8267 9.74924L24.0093 6.80795L16.1772 11.5288L18.7926 15.8677L14.3895 12.6063L8.76051 19.8268L12.0733 23.3974L7.2466 21.5512L3.97249 30.368L8.20328 32.5733L3.22577 32.2099L2.91786 41.3265L7.2656 42.1855L2.47882 43.6789L4.57403 52.7389L9.27669 51.8762L5.4458 54.1852L10.6252 62.7781L14.4561 60.469L11.497 64.2244L18.5297 70.3082L21.9319 66.5177L20.1339 71.4291L28.8662 74.7487L31.1258 70.603L31.1001 75.374L40.2715 76.3412L41.047 71.4662L41.9762 76.4736L50.8184 74.3915L50.638 68.7008L53.2021 72.9547L61.0341 68.2339L58.4701 63.98L62.7367 67.2077L69.0478 60.156L65.6498 56.6367L69.897 58.4842L73.8358 49.6148L69.1793 47.666L73.9856 47.5528L74.9581 38.3835L70.0309 37.5258L74.631 36.4929L72.7912 27.279L67.8331 28.2957L71.9194 25.8327L67.4733 17.4937L62.6537 19.7029L65.8682 15.7935L58.58 9.86364L55.3645 13.1937L57.0611 8.69143L48.3451 5.014L46.2568 9.63639Z" fill="url(#paint0_radial_155_20)"/>
<path d="M46.2568 9.63639L46.7082 4.60882L36.8721 3.69429L36.6761 8.56793L35.1511 3.91976L26.4278 5.81412L26.8267 9.74924L24.0093 6.80795L16.1772 11.5288L18.7926 15.8677L14.3895 12.6063L8.76051 19.8268L12.0733 23.3974L7.2466 21.5512L3.97249 30.368L8.20328 32.5733L3.22577 32.2099L2.91786 41.3265L7.2656 42.1855L2.47882 43.6789L4.57403 52.7389L9.27669 51.8762L5.4458 54.1852L10.6252 62.7781L14.4561 60.469L11.497 64.2244L18.5297 70.3082L21.9319 66.5177L20.1339 71.4291L28.8662 74.7487L31.1258 70.603L31.1001 75.374L40.2715 76.3412L41.047 71.4662L41.9762 76.4736L50.8184 74.3915L50.638 68.7008L53.2021 72.9547L61.0341 68.2339L58.4701 63.98L62.7367 67.2077L69.0478 60.156L65.6498 56.6367L69.897 58.4842L73.8358 49.6148L69.1793 47.666L73.9856 47.5528L74.9581 38.3835L70.0309 37.5258L74.631 36.4929L72.7912 27.279L67.8331 28.2957L71.9194 25.8327L67.4733 17.4937L62.6537 19.7029L65.8682 15.7935L58.58 9.86364L55.3645 13.1937L57.0611 8.69143L48.3451 5.014L46.2568 9.63639Z" fill="url(#paint1_angular_155_20)"/>
<path d="M46.2568 9.63639L46.7082 4.60882L36.8721 3.69429L36.6761 8.56793L35.1511 3.91976L26.4278 5.81412L26.8267 9.74924L24.0093 6.80795L16.1772 11.5288L18.7926 15.8677L14.3895 12.6063L8.76051 19.8268L12.0733 23.3974L7.2466 21.5512L3.97249 30.368L8.20328 32.5733L3.22577 32.2099L2.91786 41.3265L7.2656 42.1855L2.47882 43.6789L4.57403 52.7389L9.27669 51.8762L5.4458 54.1852L10.6252 62.7781L14.4561 60.469L11.497 64.2244L18.5297 70.3082L21.9319 66.5177L20.1339 71.4291L28.8662 74.7487L31.1258 70.603L31.1001 75.374L40.2715 76.3412L41.047 71.4662L41.9762 76.4736L50.8184 74.3915L50.638 68.7008L53.2021 72.9547L61.0341 68.2339L58.4701 63.98L62.7367 67.2077L69.0478 60.156L65.6498 56.6367L69.897 58.4842L73.8358 49.6148L69.1793 47.666L73.9856 47.5528L74.9581 38.3835L70.0309 37.5258L74.631 36.4929L72.7912 27.279L67.8331 28.2957L71.9194 25.8327L67.4733 17.4937L62.6537 19.7029L65.8682 15.7935L58.58 9.86364L55.3645 13.1937L57.0611 8.69143L48.3451 5.014L46.2568 9.63639Z" fill="url(#paint2_angular_155_20)"/>
</g>
</g>
<defs>
<radialGradient id="paint0_radial_155_20" cx="0" cy="0" r="1" gradientUnits="userSpaceOnUse" gradientTransform="translate(38.8185 39.753) rotate(-162.204) scale(36.0324 35.8608)">
<stop stop-color="#2AD0CA"/>
<stop offset="0.2" stop-color="#E1F664"/>
<stop offset="0.4" stop-color="#EFB0FE"/>
<stop offset="0.6" stop-color="#ABB3FC"/>
<stop offset="0.8" stop-color="#5DF7A4"/>
<stop offset="1" stop-color="#58C4F8"/>
</radialGradient>
<radialGradient id="paint1_angular_155_20" cx="0" cy="0" r="1" gradientUnits="userSpaceOnUse" gradientTransform="translate(38.8185 39.7531) rotate(148.92) scale(36.0324 35.8608)">
<stop offset="0.0966799" stop-opacity="0"/>
<stop offset="0.2" stop-color="white" stop-opacity="0.5"/>
<stop offset="0.4" stop-opacity="0.75"/>
<stop offset="0.6" stop-color="white" stop-opacity="0.875"/>
<stop offset="0.856778" stop-opacity="0.9375"/>
<stop offset="1" stop-color="white"/>
</radialGradient>
<radialGradient id="paint2_angular_155_20" cx="0" cy="0" r="1" gradientUnits="userSpaceOnUse" gradientTransform="translate(38.8185 39.7531) rotate(148.92) scale(36.0324 35.8608)">
<stop offset="0.0941729" stop-opacity="0"/>
<stop offset="0.265659" stop-color="white" stop-opacity="0.5"/>
<stop offset="0.4" stop-opacity="0.75"/>
<stop offset="0.588287" stop-color="white" stop-opacity="0.875"/>
<stop offset="0.759864" stop-opacity="0.9375"/>
<stop offset="0.90806" stop-color="white"/>
</radialGradient>
<clipPath id="clip0_155_20">
<rect width="77" height="80" fill="white"/>
</clipPath>
</defs>
</svg>
