<svg width="102" height="102" viewBox="0 0 102 102" fill="none" xmlns="http://www.w3.org/2000/svg">
<path d="M58.3956 20.5343L58.8636 15.5082L49.0306 14.5613L48.8185 19.4342L47.3088 14.7811L38.5794 16.6466L38.9653 20.583L36.1576 17.6325L28.31 22.3274L30.911 26.675L26.5187 23.3991L20.866 30.601L24.167 34.1825L19.3464 32.3204L16.0432 41.1263L20.2667 43.3456L15.2904 42.9658L14.9524 52.0813L19.2973 52.9546L14.5056 54.4323L16.5709 63.4991L21.2764 62.6518L17.4379 64.9483L22.5889 73.5581L26.4274 71.2617L23.4559 75.0073L30.4686 81.1143L33.8833 77.3351L32.069 82.2405L40.7904 85.5889L43.0637 81.4506L43.0222 86.2215L52.1904 87.2189L52.982 82.3466L53.8946 87.357L62.7436 85.3041L62.582 79.6129L65.132 83.8752L72.9796 79.1802L70.4296 74.9179L74.6856 78.1596L81.0199 71.1288L77.6336 67.5983L81.8747 69.4598L85.8426 60.6035L81.1926 58.6393L85.9992 58.5419L87.002 49.3759L82.0776 48.502L86.6811 47.4842L84.8717 38.2643L79.9103 39.2646L84.0047 36.8151L79.5862 28.4616L74.7593 30.6548L77.9867 26.7561L70.7181 20.8022L67.4916 24.1216L69.203 19.625L60.4992 15.9188L58.3956 20.5343Z" fill="#ACACAC"/>
<path d="M55.4113 58.8292C51.1643 60.8215 46.0574 58.8893 44.0048 54.5136C41.9522 50.1379 43.7311 44.9757 47.9781 42.9834C52.2251 40.9911 57.332 42.9233 59.3846 47.299C61.4372 51.6747 59.6583 56.8369 55.4113 58.8292ZM49.6593 46.5674C47.3335 47.6584 46.3593 50.4855 47.4834 52.8818C48.6075 55.2781 51.4042 56.3363 53.7301 55.2452C56.0559 54.1542 57.0301 51.3271 55.906 48.9308C54.7819 46.5345 51.9852 45.4763 49.6593 46.5674Z" fill="black"/>
<path d="M63.3199 63.9376C61.5712 64.7579 59.4885 64.0053 58.6681 62.2565C57.8478 60.5078 58.6004 58.4251 60.3492 57.6047C62.098 56.7844 64.1806 57.537 65.001 59.2858C65.8213 61.0346 65.0687 63.1172 63.3199 63.9376ZM60.6142 58.1698C59.1775 58.8437 58.5592 60.5548 59.2331 61.9915C59.9071 63.4282 61.6182 64.0465 63.0549 63.3726C64.4916 62.6986 65.1099 60.9876 64.436 59.5508C63.762 58.1141 62.051 57.4958 60.6142 58.1698Z" fill="black"/>
<path d="M46.9107 67.7729C45.162 68.5933 43.0793 67.8406 42.259 66.0918C41.4386 64.3431 42.1913 62.2604 43.94 61.4401C45.6888 60.6197 47.7715 61.3724 48.5918 63.1211C49.4121 64.8699 48.6595 66.9526 46.9107 67.7729ZM44.2051 62.0051C42.7683 62.679 42.15 64.3901 42.824 65.8268C43.4979 67.2635 45.209 67.8819 46.6457 67.2079C48.0824 66.5339 48.7008 64.8229 48.0268 63.3862C47.3528 61.9495 45.6418 61.3311 44.2051 62.0051Z" fill="black"/>
<path d="M39.484 51.9369C37.7352 52.7572 35.6525 52.0046 34.8322 50.2558C34.0119 48.507 34.7645 46.4244 36.5133 45.604C38.262 44.7837 40.3447 45.5363 41.165 47.2851C41.9854 49.0338 41.2327 51.1165 39.484 51.9369ZM36.7783 46.169C35.3416 46.843 34.7233 48.554 35.3972 49.9907C36.0712 51.4275 37.7822 52.0458 39.2189 51.3718C40.6557 50.6979 41.274 48.9868 40.6 47.5501C39.9261 46.1134 38.215 45.4951 36.7783 46.169Z" fill="black"/>
<path d="M51.8619 39.5077C50.1131 40.328 48.0305 39.5754 47.2101 37.8266C46.3898 36.0778 47.1424 33.9952 48.8912 33.1748C50.64 32.3545 52.7226 33.1071 53.543 34.8559C54.3633 36.6046 53.6107 38.6873 51.8619 39.5077ZM49.1562 33.7398C47.7195 34.4138 47.1012 36.1248 47.7751 37.5615C48.4491 38.9983 50.1601 39.6166 51.5969 38.9426C53.0336 38.2687 53.6519 36.5576 52.978 35.1209C52.304 33.6842 50.593 33.0659 49.1562 33.7398Z" fill="black"/>
<path d="M66.1881 47.6927C64.4393 48.5131 62.3566 47.7604 61.5363 46.0116C60.716 44.2629 61.4686 42.1802 63.2174 41.3599C64.9661 40.5395 67.0488 41.2922 67.8691 43.0409C68.6895 44.7897 67.9368 46.8724 66.1881 47.6927ZM63.4824 41.9249C62.0457 42.5988 61.4274 44.3099 62.1013 45.7466C62.7753 47.1833 64.4863 47.8017 65.923 47.1277C67.3598 46.4537 67.9781 44.7427 67.3041 43.306C66.6302 41.8693 64.9191 41.2509 63.4824 41.9249Z" fill="black"/>
<g style="mix-blend-mode:screen">
<path d="M58.2568 20.6364L58.7082 15.6088L48.8721 14.6943L48.6761 19.5679L47.1511 14.9198L38.4278 16.8141L38.8267 20.7492L36.0093 17.808L28.1772 22.5288L30.7926 26.8677L26.3895 23.6063L20.7605 30.8268L24.0733 34.3974L19.2466 32.5512L15.9725 41.368L20.2033 43.5733L15.2258 43.2099L14.9179 52.3265L19.2656 53.1855L14.4788 54.6789L16.574 63.7389L21.2767 62.8762L17.4458 65.1852L22.6252 73.7781L26.4561 71.469L23.497 75.2244L30.5297 81.3082L33.9319 77.5177L32.1339 82.4291L40.8662 85.7487L43.1258 81.603L43.1001 86.374L52.2715 87.3412L53.047 82.4662L53.9762 87.4736L62.8184 85.3915L62.638 79.7008L65.2021 83.9547L73.0341 79.2339L70.4701 74.98L74.7367 78.2077L81.0478 71.156L77.6498 67.6367L81.897 69.4842L85.8358 60.6148L81.1793 58.666L85.9856 58.5528L86.9581 49.3835L82.0309 48.5258L86.631 47.4929L84.7912 38.279L79.8331 39.2957L83.9194 36.8327L79.4733 28.4937L74.6537 30.7029L77.8682 26.7935L70.58 20.8636L67.3645 24.1937L69.0611 19.6914L60.3451 16.014L58.2568 20.6364Z" fill="url(#paint0_radial_145_567)"/>
<path d="M58.2568 20.6364L58.7082 15.6088L48.8721 14.6943L48.6761 19.5679L47.1511 14.9198L38.4278 16.8141L38.8267 20.7492L36.0093 17.808L28.1772 22.5288L30.7926 26.8677L26.3895 23.6063L20.7605 30.8268L24.0733 34.3974L19.2466 32.5512L15.9725 41.368L20.2033 43.5733L15.2258 43.2099L14.9179 52.3265L19.2656 53.1855L14.4788 54.6789L16.574 63.7389L21.2767 62.8762L17.4458 65.1852L22.6252 73.7781L26.4561 71.469L23.497 75.2244L30.5297 81.3082L33.9319 77.5177L32.1339 82.4291L40.8662 85.7487L43.1258 81.603L43.1001 86.374L52.2715 87.3412L53.047 82.4662L53.9762 87.4736L62.8184 85.3915L62.638 79.7008L65.2021 83.9547L73.0341 79.2339L70.4701 74.98L74.7367 78.2077L81.0478 71.156L77.6498 67.6367L81.897 69.4842L85.8358 60.6148L81.1793 58.666L85.9856 58.5528L86.9581 49.3835L82.0309 48.5258L86.631 47.4929L84.7912 38.279L79.8331 39.2957L83.9194 36.8327L79.4733 28.4937L74.6537 30.7029L77.8682 26.7935L70.58 20.8636L67.3645 24.1937L69.0611 19.6914L60.3451 16.014L58.2568 20.6364Z" fill="url(#paint1_angular_145_567)"/>
<path d="M58.2568 20.6364L58.7082 15.6088L48.8721 14.6943L48.6761 19.5679L47.1511 14.9198L38.4278 16.8141L38.8267 20.7492L36.0093 17.808L28.1772 22.5288L30.7926 26.8677L26.3895 23.6063L20.7605 30.8268L24.0733 34.3974L19.2466 32.5512L15.9725 41.368L20.2033 43.5733L15.2258 43.2099L14.9179 52.3265L19.2656 53.1855L14.4788 54.6789L16.574 63.7389L21.2767 62.8762L17.4458 65.1852L22.6252 73.7781L26.4561 71.469L23.497 75.2244L30.5297 81.3082L33.9319 77.5177L32.1339 82.4291L40.8662 85.7487L43.1258 81.603L43.1001 86.374L52.2715 87.3412L53.047 82.4662L53.9762 87.4736L62.8184 85.3915L62.638 79.7008L65.2021 83.9547L73.0341 79.2339L70.4701 74.98L74.7367 78.2077L81.0478 71.156L77.6498 67.6367L81.897 69.4842L85.8358 60.6148L81.1793 58.666L85.9856 58.5528L86.9581 49.3835L82.0309 48.5258L86.631 47.4929L84.7912 38.279L79.8331 39.2957L83.9194 36.8327L79.4733 28.4937L74.6537 30.7029L77.8682 26.7935L70.58 20.8636L67.3645 24.1937L69.0611 19.6914L60.3451 16.014L58.2568 20.6364Z" fill="url(#paint2_angular_145_567)"/>
</g>
<defs>
<radialGradient id="paint0_radial_145_567" cx="0" cy="0" r="1" gradientUnits="userSpaceOnUse" gradientTransform="translate(50.8185 50.753) rotate(-162.204) scale(36.0324 35.8608)">
<stop stop-color="#2AD0CA"/>
<stop offset="0.2" stop-color="#E1F664"/>
<stop offset="0.4" stop-color="#EFB0FE"/>
<stop offset="0.6" stop-color="#ABB3FC"/>
<stop offset="0.8" stop-color="#5DF7A4"/>
<stop offset="1" stop-color="#58C4F8"/>
</radialGradient>
<radialGradient id="paint1_angular_145_567" cx="0" cy="0" r="1" gradientUnits="userSpaceOnUse" gradientTransform="translate(50.8185 50.7531) rotate(148.92) scale(36.0324 35.8608)">
<stop offset="0.0966799" stop-opacity="0"/>
<stop offset="0.2" stop-color="white" stop-opacity="0.5"/>
<stop offset="0.4" stop-opacity="0.75"/>
<stop offset="0.6" stop-color="white" stop-opacity="0.875"/>
<stop offset="0.856778" stop-opacity="0.9375"/>
<stop offset="1" stop-color="white"/>
</radialGradient>
<radialGradient id="paint2_angular_145_567" cx="0" cy="0" r="1" gradientUnits="userSpaceOnUse" gradientTransform="translate(50.8185 50.7531) rotate(148.92) scale(36.0324 35.8608)">
<stop offset="0.0941729" stop-opacity="0"/>
<stop offset="0.265659" stop-color="white" stop-opacity="0.5"/>
<stop offset="0.4" stop-opacity="0.75"/>
<stop offset="0.588287" stop-color="white" stop-opacity="0.875"/>
<stop offset="0.759864" stop-opacity="0.9375"/>
<stop offset="0.90806" stop-color="white"/>
</radialGradient>
</defs>
</svg>
