<svg width="77" height="80" viewBox="0 0 77 80" fill="none" xmlns="http://www.w3.org/2000/svg">
<g clip-path="url(#clip0_155_20)">
<path d="M46.3956 9.5344L46.8636 4.50835L37.0306 3.56138L36.8185 8.43434L35.3088 3.78117L26.5794 5.64675L26.9653 9.58316L24.1576 6.6326L16.31 11.3275L18.911 15.6751L14.5187 12.3992L8.86596 19.6011L12.167 23.1826L7.34636 21.3205L4.04319 30.1264L8.26668 32.3457L3.2904 31.9659L2.95242 41.0814L7.29731 41.9548L2.50563 43.4324L4.57094 52.4992L9.27642 51.652L5.43794 53.9484L10.5889 62.5583L14.4274 60.2618L11.4559 64.0075L18.4686 70.1144L21.8833 66.3352L20.069 71.2406L28.7904 74.589L31.0637 70.4508L31.0222 75.2216L40.1904 76.2191L40.982 71.3467L41.8946 76.3571L50.7436 74.3042L50.582 68.613L53.132 72.8753L60.9796 68.1804L58.4296 63.918L62.6856 67.1597L69.0199 60.1289L65.6336 56.5984L69.8747 58.4599L73.8426 49.6036L69.1926 47.6395L73.9992 47.542L75.002 38.376L70.0776 37.5021L74.6811 36.4844L72.8717 27.2644L67.9103 28.2648L72.0047 25.8152L67.5862 17.4617L62.7593 19.6549L65.9867 15.7562L58.7181 9.80229L55.4916 13.1217L57.203 8.62509L48.4992 4.91892L46.3956 9.5344Z" fill="#ACACAC" stroke="black"/>
<mask id="path-2-inside-1_155_20" fill="white">
<path d="M43.4113 47.8293C39.1643 49.8216 34.0574 47.8894 32.0048 43.5137C29.9522 39.138 31.7311 33.9758 35.9781 31.9835C40.2251 29.9913 45.332 31.9234 47.3846 36.2991C49.4372 40.6748 47.6583 45.8371 43.4113 47.8293ZM37.6593 35.5675C35.3335 36.6585 34.3593 39.4856 35.4834 41.8819C36.6075 44.2783 39.4042 45.3364 41.7301 44.2454C44.0559 43.1543 45.0301 40.3272 43.906 37.9309C42.7819 35.5346 39.9852 34.4764 37.6593 35.5675Z"/>
</mask>
<path d="M43.4113 47.8293C39.1643 49.8216 34.0574 47.8894 32.0048 43.5137C29.9522 39.138 31.7311 33.9758 35.9781 31.9835C40.2251 29.9913 45.332 31.9234 47.3846 36.2991C49.4372 40.6748 47.6583 45.8371 43.4113 47.8293ZM37.6593 35.5675C35.3335 36.6585 34.3593 39.4856 35.4834 41.8819C36.6075 44.2783 39.4042 45.3364 41.7301 44.2454C44.0559 43.1543 45.0301 40.3272 43.906 37.9309C42.7819 35.5346 39.9852 34.4764 37.6593 35.5675Z" fill="black" stroke="black" stroke-width="2" mask="url(#path-2-inside-1_155_20)"/>
<mask id="path-3-inside-2_155_20" fill="white">
<path d="M51.3199 52.9377C49.5712 53.758 47.4885 53.0054 46.6681 51.2566C45.8478 49.5079 46.6004 47.4252 48.3492 46.6049C50.098 45.7845 52.1806 46.5372 53.001 48.2859C53.8213 50.0347 53.0687 52.1174 51.3199 52.9377ZM48.6142 47.1699C47.1775 47.8438 46.5592 49.5549 47.2331 50.9916C47.9071 52.4283 49.6182 53.0467 51.0549 52.3727C52.4916 51.6987 53.1099 49.9877 52.436 48.551C51.762 47.1143 50.051 46.4959 48.6142 47.1699Z"/>
</mask>
<path d="M51.3199 52.9377C49.5712 53.758 47.4885 53.0054 46.6681 51.2566C45.8478 49.5079 46.6004 47.4252 48.3492 46.6049C50.098 45.7845 52.1806 46.5372 53.001 48.2859C53.8213 50.0347 53.0687 52.1174 51.3199 52.9377ZM48.6142 47.1699C47.1775 47.8438 46.5592 49.5549 47.2331 50.9916C47.9071 52.4283 49.6182 53.0467 51.0549 52.3727C52.4916 51.6987 53.1099 49.9877 52.436 48.551C51.762 47.1143 50.051 46.4959 48.6142 47.1699Z" fill="black" stroke="black" stroke-width="2" mask="url(#path-3-inside-2_155_20)"/>
<mask id="path-4-inside-3_155_20" fill="white">
<path d="M34.9107 56.7729C33.162 57.5933 31.0793 56.8406 30.259 55.0918C29.4386 53.3431 30.1913 51.2604 31.94 50.4401C33.6888 49.6197 35.7715 50.3724 36.5918 52.1211C37.4121 53.8699 36.6595 55.9526 34.9107 56.7729ZM32.2051 51.0051C30.7683 51.679 30.15 53.3901 30.824 54.8268C31.4979 56.2635 33.209 56.8819 34.6457 56.2079C36.0824 55.5339 36.7008 53.8229 36.0268 52.3862C35.3528 50.9495 33.6418 50.3311 32.2051 51.0051Z"/>
</mask>
<path d="M34.9107 56.7729C33.162 57.5933 31.0793 56.8406 30.259 55.0918C29.4386 53.3431 30.1913 51.2604 31.94 50.4401C33.6888 49.6197 35.7715 50.3724 36.5918 52.1211C37.4121 53.8699 36.6595 55.9526 34.9107 56.7729ZM32.2051 51.0051C30.7683 51.679 30.15 53.3901 30.824 54.8268C31.4979 56.2635 33.209 56.8819 34.6457 56.2079C36.0824 55.5339 36.7008 53.8229 36.0268 52.3862C35.3528 50.9495 33.6418 50.3311 32.2051 51.0051Z" fill="black" stroke="black" stroke-width="2" mask="url(#path-4-inside-3_155_20)"/>
<mask id="path-5-inside-4_155_20" fill="white">
<path d="M27.484 40.9369C25.7352 41.7572 23.6525 41.0046 22.8322 39.2558C22.0119 37.507 22.7645 35.4244 24.5133 34.604C26.262 33.7837 28.3447 34.5363 29.165 36.2851C29.9854 38.0338 29.2327 40.1165 27.484 40.9369ZM24.7783 35.169C23.3416 35.843 22.7233 37.554 23.3972 38.9907C24.0712 40.4275 25.7822 41.0458 27.2189 40.3718C28.6557 39.6979 29.274 37.9868 28.6 36.5501C27.9261 35.1134 26.215 34.4951 24.7783 35.169Z"/>
</mask>
<path d="M27.484 40.9369C25.7352 41.7572 23.6525 41.0046 22.8322 39.2558C22.0119 37.507 22.7645 35.4244 24.5133 34.604C26.262 33.7837 28.3447 34.5363 29.165 36.2851C29.9854 38.0338 29.2327 40.1165 27.484 40.9369ZM24.7783 35.169C23.3416 35.843 22.7233 37.554 23.3972 38.9907C24.0712 40.4275 25.7822 41.0458 27.2189 40.3718C28.6557 39.6979 29.274 37.9868 28.6 36.5501C27.9261 35.1134 26.215 34.4951 24.7783 35.169Z" fill="black" stroke="black" stroke-width="2" mask="url(#path-5-inside-4_155_20)"/>
<mask id="path-6-inside-5_155_20" fill="white">
<path d="M39.8619 28.5077C38.1131 29.328 36.0305 28.5754 35.2101 26.8266C34.3898 25.0778 35.1424 22.9952 36.8912 22.1748C38.64 21.3545 40.7226 22.1071 41.543 23.8559C42.3633 25.6046 41.6107 27.6873 39.8619 28.5077ZM37.1562 22.7398C35.7195 23.4138 35.1012 25.1248 35.7751 26.5615C36.4491 27.9983 38.1601 28.6166 39.5969 27.9426C41.0336 27.2687 41.6519 25.5576 40.978 24.1209C40.304 22.6842 38.593 22.0659 37.1562 22.7398Z"/>
</mask>
<path d="M39.8619 28.5077C38.1131 29.328 36.0305 28.5754 35.2101 26.8266C34.3898 25.0778 35.1424 22.9952 36.8912 22.1748C38.64 21.3545 40.7226 22.1071 41.543 23.8559C42.3633 25.6046 41.6107 27.6873 39.8619 28.5077ZM37.1562 22.7398C35.7195 23.4138 35.1012 25.1248 35.7751 26.5615C36.4491 27.9983 38.1601 28.6166 39.5969 27.9426C41.0336 27.2687 41.6519 25.5576 40.978 24.1209C40.304 22.6842 38.593 22.0659 37.1562 22.7398Z" fill="black" stroke="black" stroke-width="2" mask="url(#path-6-inside-5_155_20)"/>
<mask id="path-7-inside-6_155_20" fill="white">
<path d="M54.1881 36.6927C52.4393 37.5131 50.3566 36.7604 49.5363 35.0116C48.716 33.2629 49.4686 31.1802 51.2174 30.3599C52.9661 29.5395 55.0488 30.2922 55.8691 32.0409C56.6895 33.7897 55.9368 35.8724 54.1881 36.6927ZM51.4824 30.9249C50.0457 31.5988 49.4274 33.3099 50.1013 34.7466C50.7753 36.1833 52.4863 36.8017 53.923 36.1277C55.3598 35.4537 55.9781 33.7427 55.3041 32.306C54.6302 30.8693 52.9191 30.2509 51.4824 30.9249Z"/>
</mask>
<path d="M54.1881 36.6927C52.4393 37.5131 50.3566 36.7604 49.5363 35.0116C48.716 33.2629 49.4686 31.1802 51.2174 30.3599C52.9661 29.5395 55.0488 30.2922 55.8691 32.0409C56.6895 33.7897 55.9368 35.8724 54.1881 36.6927ZM51.4824 30.9249C50.0457 31.5988 49.4274 33.3099 50.1013 34.7466C50.7753 36.1833 52.4863 36.8017 53.923 36.1277C55.3598 35.4537 55.9781 33.7427 55.3041 32.306C54.6302 30.8693 52.9191 30.2509 51.4824 30.9249Z" fill="black" stroke="black" stroke-width="2" mask="url(#path-7-inside-6_155_20)"/>
</g>
<defs>
<clipPath id="clip0_155_20">
<rect width="77" height="80" fill="white"/>
</clipPath>
</defs>
</svg>
