<svg width="73" height="73" viewBox="0 0 73 73" fill="none" xmlns="http://www.w3.org/2000/svg">
<g style="mix-blend-mode:screen">
<path d="M57.1425 13.2722L59.9131 9.0527L51.6728 3.60458L49.2 7.80887L50.049 2.99116L41.4643 0.544622L39.9589 4.20222L38.863 0.279472L29.7301 0.745429L29.9882 5.80505L27.6454 0.851789L19.2752 4.56123L20.5108 9.27259L17.1266 5.36712L10.0793 11.5952L12.7685 15.5361L8.55167 12.8667L3.97789 20.759L7.40567 23.5681L2.48066 22.6258L0.052305 31.6022L4.60553 33.0608L0.138352 33.2888L0.649571 43.3088L5.11674 43.0809L0.735618 44.9953L4.06494 53.678L8.85328 51.9417L4.95022 55.4232L11.0825 62.4709L15.0311 59.8823L12.7568 64.0764L20.3863 69.2573L23.3706 65.3253L21.8267 70.1785L30.605 72.5157L33.1315 67.4134L33.3845 72.3739L42.5174 71.9079L42.2644 66.9475L44.5028 71.8066L53.3947 68.5679L52.0598 63.8616L54.9324 67.4948L62.5906 61.5339L59.405 57.6183L63.6958 59.7866L68.8804 52.1615L64.9411 49.0801L69.4842 50.3403L72.2104 41.3487L67.3594 39.9053L72.1244 39.6622L72.1399 30.2121L66.8481 29.8853L71.5271 27.9556L67.8999 19.2881L63.4935 20.7065L67.1139 17.5378L61.1651 10.1824L57.1425 13.2722Z" fill="url(#paint0_radial_145_575)"/>
<path d="M57.1425 13.2722L59.9131 9.0527L51.6728 3.60458L49.2 7.80887L50.049 2.99116L41.4643 0.544622L39.9589 4.20222L38.863 0.279472L29.7301 0.745429L29.9882 5.80505L27.6454 0.851789L19.2752 4.56123L20.5108 9.27259L17.1266 5.36712L10.0793 11.5952L12.7685 15.5361L8.55167 12.8667L3.97789 20.759L7.40567 23.5681L2.48066 22.6258L0.052305 31.6022L4.60553 33.0608L0.138352 33.2888L0.649571 43.3088L5.11674 43.0809L0.735618 44.9953L4.06494 53.678L8.85328 51.9417L4.95022 55.4232L11.0825 62.4709L15.0311 59.8823L12.7568 64.0764L20.3863 69.2573L23.3706 65.3253L21.8267 70.1785L30.605 72.5157L33.1315 67.4134L33.3845 72.3739L42.5174 71.9079L42.2644 66.9475L44.5028 71.8066L53.3947 68.5679L52.0598 63.8616L54.9324 67.4948L62.5906 61.5339L59.405 57.6183L63.6958 59.7866L68.8804 52.1615L64.9411 49.0801L69.4842 50.3403L72.2104 41.3487L67.3594 39.9053L72.1244 39.6622L72.1399 30.2121L66.8481 29.8853L71.5271 27.9556L67.8999 19.2881L63.4935 20.7065L67.1139 17.5378L61.1651 10.1824L57.1425 13.2722Z" fill="url(#paint1_angular_145_575)"/>
<path d="M57.1425 13.2722L59.9131 9.0527L51.6728 3.60458L49.2 7.80887L50.049 2.99116L41.4643 0.544622L39.9589 4.20222L38.863 0.279472L29.7301 0.745429L29.9882 5.80505L27.6454 0.851789L19.2752 4.56123L20.5108 9.27259L17.1266 5.36712L10.0793 11.5952L12.7685 15.5361L8.55167 12.8667L3.97789 20.759L7.40567 23.5681L2.48066 22.6258L0.052305 31.6022L4.60553 33.0608L0.138352 33.2888L0.649571 43.3088L5.11674 43.0809L0.735618 44.9953L4.06494 53.678L8.85328 51.9417L4.95022 55.4232L11.0825 62.4709L15.0311 59.8823L12.7568 64.0764L20.3863 69.2573L23.3706 65.3253L21.8267 70.1785L30.605 72.5157L33.1315 67.4134L33.3845 72.3739L42.5174 71.9079L42.2644 66.9475L44.5028 71.8066L53.3947 68.5679L52.0598 63.8616L54.9324 67.4948L62.5906 61.5339L59.405 57.6183L63.6958 59.7866L68.8804 52.1615L64.9411 49.0801L69.4842 50.3403L72.2104 41.3487L67.3594 39.9053L72.1244 39.6622L72.1399 30.2121L66.8481 29.8853L71.5271 27.9556L67.8999 19.2881L63.4935 20.7065L67.1139 17.5378L61.1651 10.1824L57.1425 13.2722Z" fill="url(#paint2_angular_145_575)"/>
</g>
<defs>
<radialGradient id="paint0_radial_145_575" cx="0" cy="0" r="1" gradientUnits="userSpaceOnUse" gradientTransform="translate(36.3719 36.314) rotate(-134.045) scale(36.0324 35.8608)">
<stop stop-color="#2AD0CA"/>
<stop offset="0.2" stop-color="#E1F664"/>
<stop offset="0.4" stop-color="#EFB0FE"/>
<stop offset="0.6" stop-color="#ABB3FC"/>
<stop offset="0.8" stop-color="#5DF7A4"/>
<stop offset="1" stop-color="#58C4F8"/>
</radialGradient>
<radialGradient id="paint1_angular_145_575" cx="0" cy="0" r="1" gradientUnits="userSpaceOnUse" gradientTransform="translate(36.3719 36.314) rotate(177.079) scale(36.0324 35.8608)">
<stop offset="0.0966799" stop-opacity="0"/>
<stop offset="0.2" stop-color="white" stop-opacity="0.5"/>
<stop offset="0.4" stop-opacity="0.75"/>
<stop offset="0.6" stop-color="white" stop-opacity="0.875"/>
<stop offset="0.856778" stop-opacity="0.9375"/>
<stop offset="1" stop-color="white"/>
</radialGradient>
<radialGradient id="paint2_angular_145_575" cx="0" cy="0" r="1" gradientUnits="userSpaceOnUse" gradientTransform="translate(36.3719 36.314) rotate(177.079) scale(36.0324 35.8608)">
<stop offset="0.0941729" stop-opacity="0"/>
<stop offset="0.265659" stop-color="white" stop-opacity="0.5"/>
<stop offset="0.4" stop-opacity="0.75"/>
<stop offset="0.588287" stop-color="white" stop-opacity="0.875"/>
<stop offset="0.759864" stop-opacity="0.9375"/>
<stop offset="0.90806" stop-color="white"/>
</radialGradient>
</defs>
</svg>
