<svg width="219" height="185" viewBox="0 0 219 185" fill="none" xmlns="http://www.w3.org/2000/svg">
<path d="M4.27344 170.007L4.2736 170.007L4.27409 170.007L4.27605 170.007L4.28389 170.007L4.31509 170.006L4.43845 170.005L4.91964 169.997C5.34112 169.991 5.95923 169.981 6.74566 169.968C8.31853 169.941 10.5647 169.902 13.2575 169.849L13.2612 169.849C18.6438 169.796 25.7887 169.638 32.9854 169.428M4.27344 170.007L32.9987 169.808M4.27344 170.007L4.26208 170.007C2.52814 170.085 1.65699 169.742 1.17073 169.185C0.669662 168.612 0.485912 167.718 0.383695 166.435M4.27344 170.007L0.383695 166.435M32.9854 169.428C32.9862 169.428 32.9869 169.428 32.9876 169.428L32.9987 169.808M32.9854 169.428C32.9852 169.428 32.9849 169.428 32.9847 169.428L32.9987 169.808M32.9854 169.428C40.1059 169.164 47.1762 168.822 52.4598 168.532C55.0758 168.387 57.2389 168.249 58.7479 168.147C59.5023 168.096 60.0932 168.054 60.4953 168.025C60.6964 168.01 60.8503 167.999 60.9539 167.991L61.071 167.982L61.1006 167.98L61.108 167.98L61.1098 167.979L61.1104 167.979L61.1168 167.979C62.8282 167.877 64.1418 167.444 65.1145 166.728C66.0816 166.017 66.7429 165.003 67.1143 163.678M32.9987 169.808C40.1221 169.544 47.195 169.202 52.4809 168.912C57.7164 168.622 61.1396 168.359 61.1396 168.359C64.6635 168.148 66.7023 166.567 67.4826 163.774M67.1143 163.678L67.1131 163.684L67.1127 163.685L67.1126 163.686L67.1125 163.686C67.1125 163.686 67.1125 163.686 67.4826 163.774M67.1143 163.678L67.1144 163.678L67.1161 163.672M67.1143 163.678C67.1149 163.676 67.1155 163.674 67.1161 163.672M67.4826 163.774C67.4826 163.774 68.0112 161.561 69.4207 158.373L67.1161 163.672M67.4826 163.774L67.1161 163.672M0.383695 166.435L0.398684 166.366L0.478681 166C0.549449 165.676 0.654825 165.195 0.793237 164.564C1.07003 163.303 1.47892 161.446 2.00735 159.062C3.09031 154.317 4.52534 147.65 6.23662 139.563C7.11851 135.58 8.00008 131.204 8.88117 126.671L8.88124 126.671L8.88249 126.664C9.55256 122.828 10.2749 118.865 11.0208 114.772C11.1712 113.947 11.3225 113.117 11.4746 112.281L11.4747 112.281L11.4758 112.274C12.1158 108.359 12.74 104.344 13.3732 100.271C13.5372 99.2162 13.7018 98.1576 13.8674 97.0958L13.8682 97.0904C14.5982 91.9263 15.3286 86.6797 15.9584 81.4323L15.9585 81.4312C16.563 76.2644 17.117 71.019 17.6206 65.9323L17.6209 65.9288C18.0741 60.8683 18.4772 55.8841 18.7545 51.004M0.383695 166.435L188.302 54.5129L188.121 54.8477C181.93 51.5037 175.715 47.9308 170.892 45.1578L170.644 45.0153L170.634 45.01L170.635 45.0098C168.207 43.5222 166.17 42.2979 164.739 41.4456C164.024 41.0194 163.461 40.6863 163.076 40.4597C162.993 40.411 162.919 40.3673 162.853 40.3286C162.766 40.2772 162.693 40.2348 162.637 40.2016L162.524 40.1357L162.496 40.119L162.489 40.1149L162.487 40.1139L162.486 40.1136L162.486 40.1135L162.479 40.1095L162.473 40.1053C159.606 38.2686 156.389 37.1789 152.889 36.7372L152.883 36.7364L152.937 36.3598M18.7545 51.004C18.7544 51.0041 18.7544 51.0042 18.7544 51.0043L18.3746 50.9824L18.7545 51.004ZM18.7545 51.004C19.0314 46.2083 19.258 41.4908 19.4091 37.0886M19.4091 37.0886C19.6356 33.1905 19.837 29.4737 19.963 26.0457L19.9631 26.0457L19.9632 26.0372C20.0639 19.0521 20.0388 13.1179 19.9128 8.921L19.9127 8.91872C19.8372 6.82454 19.7806 5.15846 19.7428 4.01601C19.7239 3.44478 19.7098 3.00445 19.7003 2.70698L19.6897 2.36938L19.6871 2.28373L19.6864 2.26219L19.6863 2.25679L19.6862 2.25545L19.6862 2.25512L19.6862 2.25504L19.6862 2.25501L19.6861 2.25115C19.6627 1.67517 19.761 1.28052 19.9302 1.02226C20.0909 0.776842 20.3444 0.610376 20.7406 0.54396C21.1489 0.475521 21.698 0.516807 22.4044 0.69747C23.1068 0.877144 23.9414 1.18851 24.9101 1.63703L24.9101 1.63711L24.9175 1.64034L25.07 1.29177M19.4091 37.0886C19.4092 37.0872 19.4092 37.0857 19.4093 37.0842L19.029 37.0711M19.4091 37.0886C19.409 37.0902 19.409 37.0917 19.4089 37.0932L19.029 37.0711M25.07 1.29177C24.9175 1.64034 24.9175 1.64036 24.9176 1.64039L24.9179 1.64052L24.9191 1.64103L24.9236 1.64301L24.9415 1.65083L25.0124 1.68173C25.0751 1.70904 25.1687 1.74969 25.2919 1.80309C25.5385 1.90991 25.9043 2.06777 26.3812 2.27217C27.3351 2.68095 28.7339 3.27583 30.5142 4.02059C34.0748 5.5101 39.1619 7.59917 45.2688 9.99793L45.2688 9.998L45.2756 10.0005C51.3214 12.2418 58.4989 14.7461 66.0018 17.2761L66.0017 17.2762L66.0107 17.279C73.6659 19.6513 81.6996 22.0238 89.7341 24.212L89.7395 24.2134C97.7473 26.2694 105.63 28.1673 113.059 29.8282L113.065 29.8294C120.469 31.3582 127.344 32.6763 133.288 33.7309L133.294 33.7319C139.148 34.6674 144.044 35.4185 147.478 35.9357C149.195 36.1943 150.546 36.3944 151.468 36.5299C151.929 36.5977 152.282 36.6493 152.521 36.6839L152.791 36.7231L152.86 36.733L152.877 36.7355L152.881 36.7362L152.882 36.7363L152.883 36.7364L152.937 36.3598M25.07 1.29177C25.07 1.29177 33.2001 4.84863 45.4079 9.6438C51.4489 11.8833 58.6225 14.3863 66.1234 16.9156C73.7752 19.2868 81.8047 21.6581 89.8341 23.8449C97.8384 25.9 105.717 27.797 113.142 29.4568C120.542 30.985 127.414 32.3023 133.354 33.3562C145.059 35.2268 152.937 36.3598 152.937 36.3598M25.07 1.29177C21.1434 -0.526184 19.2052 -0.210022 19.3059 2.26661C19.3059 2.26661 19.3814 4.74324 19.5324 8.93243C19.6583 13.1216 19.6835 19.0497 19.5828 26.0317C19.4569 29.4568 19.2556 33.1718 19.029 37.0711M152.937 36.3598C156.486 36.8077 159.758 37.9142 162.678 39.7849L19.029 37.0711M98.669 59.9141C98.5886 60.2859 98.5887 60.286 98.5887 60.286L98.589 60.286L98.5902 60.2863L98.5948 60.2873L98.6131 60.2912L98.6797 60.3056C98.673 60.0474 98.669 59.9141 98.669 59.9141ZM98.669 59.9141C98.669 59.9141 98.8023 59.9429 99.052 59.9965L99.0516 59.9829L99.0499 59.9231L99.0495 59.908L99.0494 59.9042L99.0494 59.9032L99.0494 59.903L99.0493 59.9029L98.669 59.9141ZM8.50769 126.599C7.62671 131.13 6.74574 135.504 5.86477 139.482C4.15316 147.571 2.71843 154.237 1.63609 158.979C0.578925 163.748 0 166.409 0 166.409L8.50769 126.599ZM8.50769 126.599C9.17804 122.761 9.90069 118.796 10.6466 114.703M8.50769 126.599L10.6466 114.703M10.6466 114.703C10.797 113.878 10.9483 113.048 11.1003 112.213L10.6466 114.703ZM189.837 176.596C189.836 176.598 189.835 176.599 189.835 176.6L189.833 176.603L190.164 176.79L189.837 176.596ZM179.492 184.641L179.526 184.262L179.525 184.262L179.524 184.262L179.492 184.641ZM116.531 176.073C116.53 176.073 116.529 176.072 116.529 176.072L116.527 176.072L116.526 176.072L116.526 176.072L116.465 176.447L116.531 176.073ZM132.154 65.8086C132.153 65.8085 132.152 65.8083 132.15 65.8082L132.096 66.1847L132.157 65.8092L132.157 65.8091L132.156 65.8089L132.154 65.8086ZM75.7865 147.196C75.7857 147.198 75.7849 147.199 75.7841 147.201C75.7833 147.202 75.7825 147.203 75.7817 147.205L76.1161 147.386L75.7865 147.196ZM79.8318 139.753C79.8308 139.755 79.8298 139.757 79.8288 139.759C79.8278 139.761 79.8269 139.763 79.8259 139.765L80.1686 139.93L79.8318 139.753ZM83.8514 131.285C83.851 131.286 83.8505 131.287 83.85 131.288C83.8496 131.289 83.8491 131.29 83.8486 131.291L84.1959 131.446L83.8514 131.285ZM90.9832 112.752C90.9823 112.755 90.9813 112.758 90.9804 112.761C90.9796 112.764 90.9788 112.766 90.9779 112.769L91.3444 112.872L90.9832 112.752ZM93.6696 103.158C93.669 103.161 93.6684 103.163 93.6677 103.166C93.6672 103.168 93.6667 103.17 93.6661 103.173L94.0376 103.255L93.6696 103.158ZM97.8112 76.8549C97.8112 76.8553 97.8112 76.8556 97.8112 76.856C97.8112 76.8562 97.8111 76.8565 97.8111 76.8568L98.1908 76.8816L97.8112 76.8549ZM98.3893 64.6501C98.3893 64.6522 98.3892 64.6543 98.3892 64.6564C98.3892 64.6586 98.3893 64.6607 98.3893 64.6629L98.7697 64.6566L98.3893 64.6501ZM115.48 62.9656C115.479 62.9654 115.478 62.9653 115.477 62.9651C115.476 62.9649 115.475 62.9648 115.474 62.9646L115.408 63.3392L115.48 62.9656ZM126.592 177.679C126.591 177.679 126.591 177.678 126.59 177.678C126.59 177.678 126.589 177.678 126.589 177.678L126.533 178.055L126.592 177.679ZM148.484 180.76C148.483 180.76 148.483 180.76 148.482 180.76C148.481 180.76 148.479 180.76 148.478 180.76L148.431 181.137L148.484 180.76ZM196.927 163.752C196.926 163.755 196.925 163.757 196.923 163.76C196.922 163.762 196.921 163.765 196.92 163.767L197.263 163.932L196.927 163.752ZM209.366 135.843C209.366 135.844 209.365 135.846 209.365 135.847C209.364 135.848 209.364 135.849 209.364 135.851L209.722 135.978L209.366 135.843ZM212.858 125.668C212.857 125.669 212.857 125.67 212.857 125.671C212.856 125.672 212.856 125.673 212.856 125.674L213.221 125.782L212.858 125.668ZM215.621 115.57C215.62 115.572 215.62 115.574 215.619 115.576C215.619 115.578 215.619 115.58 215.618 115.582L215.99 115.665L215.621 115.57ZM218.429 96.991C218.429 96.9922 218.429 96.9934 218.428 96.9947C218.428 96.9956 218.428 96.9965 218.428 96.9975L218.809 97.0108L218.429 96.991ZM218.378 89.0394C218.378 89.0428 218.378 89.0463 218.378 89.0497C218.379 89.0532 218.379 89.0567 218.379 89.0602L218.758 89.0276L218.378 89.0394Z" fill="url(#paint0_linear_88_2315)" stroke="url(#paint1_linear_88_2315)" stroke-width="0.760952"/>
<defs>
<linearGradient id="paint0_linear_88_2315" x1="-1.94298e-09" y1="92.2729" x2="218.857" y2="92.5337" gradientUnits="userSpaceOnUse">
<stop stop-color="white"/>
<stop offset="1" stop-color="#FA39FE"/>
</linearGradient>
<linearGradient id="paint1_linear_88_2315" x1="0" y1="92.4158" x2="218.857" y2="92.4158" gradientUnits="userSpaceOnUse">
<stop stop-color="white"/>
<stop offset="1" stop-color="#FA39FE"/>
</linearGradient>
</defs>
</svg>
